<svg width="180" height="40" viewBox="0 0 180 40" fill="none" xmlns="http://www.w3.org/2000/svg">
<g clip-path="url(#clip0_80_52148)">
<path d="M60.6398 25.8821C59.5415 25.8826 58.4637 25.5937 57.5214 25.0463C56.5792 24.4989 55.8079 23.7134 55.2898 22.7738C54.7718 21.8343 54.5266 20.7759 54.5802 19.7116C54.6339 18.6474 54.9845 17.6172 55.5946 16.7312C56.2047 15.8452 57.0514 15.1366 58.0443 14.681C59.0371 14.2254 60.1389 14.04 61.2319 14.1445C62.3249 14.2491 63.3681 14.6396 64.2502 15.2745C65.1322 15.9094 65.82 16.7648 66.24 17.7493L70.7229 15.9478C69.7565 13.6841 68.011 11.8156 65.7838 10.6606C63.5566 9.50551 60.9854 9.13543 58.5084 9.61337C56.0315 10.0913 53.802 11.3877 52.1998 13.2816C50.5976 15.1756 49.7219 17.5499 49.7219 20C49.7219 22.4501 50.5976 24.8244 52.1998 26.7183C53.802 28.6123 56.0315 29.9087 58.5084 30.3866C60.9854 30.8645 63.5566 30.4945 65.7838 29.3394C68.011 28.1844 69.7565 26.3158 70.7229 24.0522L66.24 22.2506C65.7817 23.3256 65.005 24.2445 64.008 24.891C63.0111 25.5375 61.8389 25.8824 60.6398 25.8821Z" fill="#FFDE00"/>
<path d="M7.21183e-08 20.0008C7.21183e-08 23.9566 1.20912 27.8236 3.47445 31.1127C5.73978 34.4018 8.95958 36.9654 12.7267 38.4792C16.4938 39.993 20.639 40.3891 24.6382 39.6174C28.6373 38.8456 32.3107 36.9407 35.194 34.1436C38.0772 31.3464 40.0407 27.7826 40.8362 23.9028C41.6316 20.023 41.2234 16.0015 39.663 12.3468C38.1026 8.69217 35.4602 5.56847 32.0699 3.37075C28.6796 1.17303 24.6936 6.99659e-08 20.6161 6.99659e-08C17.9087 -0.000219629 15.2278 0.516967 12.7264 1.52203C10.2251 2.52708 7.95226 4.00033 6.03783 5.85762C4.12339 7.71491 2.60483 9.91988 1.56885 12.3466C0.532871 14.7733 -0.000226386 17.3742 7.21183e-08 20.0008Z" fill="#FFDE00"/>
<path d="M155.249 25.9039V30.2329H141.966V9.76874H146.704V25.9039H155.249Z" fill="#FFDE00"/>
<path d="M111.164 22.7993C114.095 21.8375 115.954 19.3819 115.954 16.5015C115.954 12.783 112.809 9.76874 108.638 9.76874H97.8152V30.2329H102.555V23.2342H106.728C107.724 27.3792 111.147 30.427 116.514 30.427V26.5228C114.048 26.5228 111.99 24.9421 111.169 22.7993M102.555 13.9957H108.395C109.098 14.013 109.767 14.2963 110.259 14.7852C110.75 15.2741 111.025 15.9299 111.025 16.6127C111.025 17.2955 110.75 17.9514 110.259 18.4402C109.767 18.9291 109.098 19.2124 108.395 19.2297H102.555V13.9957Z" fill="#FFDE00"/>
<path d="M131.473 9.76874H120.904V30.2329H125.642V23.7946H131.473C135.644 23.7946 138.787 20.7837 138.787 17.0618V16.5015C138.787 12.783 135.644 9.76874 131.473 9.76874ZM133.927 16.6135V16.9615C133.927 17.3039 133.858 17.6431 133.723 17.9596C133.588 18.276 133.39 18.5636 133.141 18.806C132.891 19.0483 132.595 19.2405 132.269 19.3718C131.943 19.503 131.593 19.5707 131.24 19.5709H125.642V13.9957H131.228C131.944 13.9957 132.63 14.2715 133.136 14.7625C133.642 15.2534 133.927 15.9193 133.927 16.6135Z" fill="#FFDE00"/>
<path d="M21.0678 25.8821C19.9696 25.8823 18.8919 25.5932 17.9498 25.0455C17.0078 24.4979 16.2367 23.7124 15.7189 22.7727C15.2011 21.8331 14.9561 20.7747 15.01 19.7106C15.0639 18.6464 15.4146 17.6164 16.0248 16.7305C16.635 15.8446 17.4817 15.1362 18.4745 14.6807C19.4674 14.2253 20.5691 14.04 21.662 14.1446C22.7549 14.2492 23.7981 14.6398 24.68 15.2746C25.562 15.9095 26.2497 16.7649 26.6697 17.7493L31.1526 15.9478C30.1862 13.6841 28.4407 11.8156 26.2135 10.6606C23.9863 9.50551 21.4151 9.13543 18.9381 9.61337C16.4612 10.0913 14.2316 11.3877 12.6295 13.2816C11.0273 15.1756 10.1516 17.5499 10.1516 20C10.1516 22.4501 11.0273 24.8244 12.6295 26.7183C14.2316 28.6123 16.4612 29.9087 18.9381 30.3866C21.4151 30.8645 23.9863 30.4945 26.2135 29.3394C28.4407 28.1844 30.1862 26.3158 31.1526 24.0522L26.6697 22.2506C26.2107 23.3255 25.4336 24.2442 24.4364 24.8906C23.4393 25.537 22.267 25.8821 21.0678 25.8821Z" fill="#1A2C5E"/>
<path d="M94.6287 30.2329L88.2492 9.76874H78.5299L72.1504 30.2329H77.1678L78.4989 25.8704C81.7134 26.631 85.0692 26.631 88.2836 25.8704L89.6147 30.2329H94.6287ZM83.3887 22.2373C82.1565 22.2367 80.9284 22.0997 79.7282 21.8291L82.2783 13.4655H84.4973L87.0474 21.8291C85.8478 22.0996 84.6203 22.2365 83.3887 22.2373Z" fill="#FFDE00"/>
<path d="M179.574 30.2329L173.195 9.76874H163.476L157.096 30.2329H162.115L163.446 25.8704C166.66 26.631 170.016 26.631 173.229 25.8704L174.561 30.2329H179.574ZM168.333 22.2373C167.101 22.2367 165.874 22.0997 164.674 21.8291L167.224 13.4655H169.441L171.991 21.8291C170.792 22.0997 169.564 22.2367 168.333 22.2373Z" fill="#FFDE00"/>
</g>
<defs>
<clipPath id="clip0_80_52148">
<rect width="179.574" height="40" fill="white"/>
</clipPath>
</defs>
</svg>
